<svg id="visual" viewBox="0 0 1920 1080" width="1920" height="1080" xmlns="http://www.w3.org/2000/svg" xmlns:xlink="http://www.w3.org/1999/xlink" version="1.1"><rect x="0" y="0" width="1920" height="1080" fill="#140021"></rect><path d="M1212 0L1387 0L1387 120L1216 120L1216 240L1577 240L1577 360L1532 360L1532 480L1324 480L1324 600L1276 600L1276 720L1281 720L1281 840L1589 840L1589 960L1378 960L1378 1080L0 1080L0 960L0 960L0 840L0 840L0 720L0 720L0 600L0 600L0 480L0 480L0 360L0 360L0 240L0 240L0 120L0 120L0 0L0 0Z" fill="#560090"></path><path d="M992 0L1145 0L1145 120L921 120L921 240L1197 240L1197 360L1101 360L1101 480L909 480L909 600L1197 600L1197 720L910 720L910 840L1172 840L1172 960L1168 960L1168 1080L0 1080L0 960L0 960L0 840L0 840L0 720L0 720L0 600L0 600L0 480L0 480L0 360L0 360L0 240L0 240L0 120L0 120L0 0L0 0Z" fill="#dc006d"></path><path d="M633 0L520 0L520 120L717 120L717 240L915 240L915 360L514 360L514 480L556 480L556 600L617 600L617 720L513 720L513 840L930 840L930 960L773 960L773 1080L0 1080L0 960L0 960L0 840L0 840L0 720L0 720L0 600L0 600L0 480L0 480L0 360L0 360L0 240L0 240L0 120L0 120L0 0L0 0Z" fill="#ff6d32"></path><path d="M325 0L341 0L341 120L340 120L340 240L295 240L295 360L510 360L510 480L531 480L531 600L356 600L356 720L341 720L341 840L554 840L554 960L335 960L335 1080L0 1080L0 960L0 960L0 840L0 840L0 720L0 720L0 600L0 600L0 480L0 480L0 360L0 360L0 240L0 240L0 120L0 120L0 0L0 0Z" fill="#ffda00"></path></svg>