<svg id="visual" viewBox="0 0 1920 1080" width="1920" height="1080" xmlns="http://www.w3.org/2000/svg" xmlns:xlink="http://www.w3.org/1999/xlink" version="1.1"><rect x="0" y="0" width="1920" height="1080" fill="#65635a"></rect><path d="M1209 0L1194 0L1194 120L1046 120L1046 240L1520 240L1520 360L1375 360L1375 480L1495 480L1495 600L1477 600L1477 720L1178 720L1178 840L1453 840L1453 960L1062 960L1062 1080L0 1080L0 960L0 960L0 840L0 840L0 720L0 720L0 600L0 600L0 480L0 480L0 360L0 360L0 240L0 240L0 120L0 120L0 0L0 0Z" fill="#ffda00"></path><path d="M775 0L411 0L411 120L784 120L784 240L769 240L769 360L879 360L879 480L652 480L652 600L777 600L777 720L753 720L753 840L656 840L656 960L453 960L453 1080L0 1080L0 960L0 960L0 840L0 840L0 720L0 720L0 600L0 600L0 480L0 480L0 360L0 360L0 240L0 240L0 120L0 120L0 0L0 0Z" fill="#4f1576"></path></svg>